<?xml version="1.0" standalone="no"?><!DOCTYPE svg PUBLIC "-//W3C//DTD SVG 1.1//EN" "http://www.w3.org/Graphics/SVG/1.1/DTD/svg11.dtd"><svg t="1713436986303" class="icon" viewBox="0 0 1024 1024" version="1.1" xmlns="http://www.w3.org/2000/svg" p-id="28017" xmlns:xlink="http://www.w3.org/1999/xlink" width="200" height="200"><path d="M230.2 128l5.2 499H928V128z" fill="#DFF0FE" p-id="28018" data-spm-anchor-id="a313x.search_index.0.i6.683b3a81uNdBZd" class="selected"></path><path d="M909.3 143.7c5.4 0 10 4.6 10 10v448.5c0 5.4-4.6 10-10 10H114.2c-5.4 0-10-4.6-10-10V153.7c0-5.4 4.6-10 10-10h795.1m0-40H114.2c-27.5 0-50 22.5-50 50v448.5c0 27.5 22.5 50 50 50h795.1c27.5 0 50-22.5 50-50V153.7c0-27.5-22.5-50-50-50z" fill="#4688C7" p-id="28019"></path><path d="M89 491.2h839v40H89zM513 904c-11 0-19.9-8.9-20-19.9l-1.7-246c-0.1-11 8.8-20.1 19.9-20.1h0.1c11 0 19.9 8.9 20 19.9l1.7 246c0.1 11-8.8 20.1-19.9 20.1h-0.1z" fill="#4688C7" p-id="28020"></path><path d="M766.2 915.6H257.9c-11 0-20-9-20-20s9-20 20-20h508.4c11 0 20 9 20 20s-9 20-20.1 20z" fill="#4688C7" p-id="28021"></path></svg>