<?xml version="1.0" standalone="no"?><!DOCTYPE svg PUBLIC "-//W3C//DTD SVG 1.1//EN" "http://www.w3.org/Graphics/SVG/1.1/DTD/svg11.dtd"><svg t="1714372649590" class="icon" viewBox="0 0 1024 1024" version="1.1" xmlns="http://www.w3.org/2000/svg" p-id="8345" xmlns:xlink="http://www.w3.org/1999/xlink" width="200" height="200"><path d="M932.730435 662.750609V361.249391c25.889391-14.246957 46.614261-42.674087 46.614261-76.8 0-48.350609-33.680696-85.348174-77.690435-85.348174-18.120348 0-36.262957 8.548174-49.196522 19.923479l-266.729739-153.6C577.958957 28.449391 546.882783 0 510.664348 0c-38.845217 0-72.503652 31.298783-77.690435 73.950609L176.595478 224.701217c-12.955826-17.051826-33.680696-25.6-54.383304-25.6-44.032 0-77.690435 36.997565-77.690435 85.348174 0 39.824696 25.889391 73.950609 59.547826 82.476522v290.148174C70.41113 665.6 44.521739 699.725913 44.521739 739.550609c0 48.350609 33.658435 85.348174 77.690435 85.348174 20.702609 0 41.427478-8.548174 54.383304-25.6l256.356174 150.750608c5.186783 42.651826 36.240696 73.950609 77.690435 73.950609 36.240696 0 67.31687-28.449391 75.085913-65.424696l264.125217-153.6c12.955826 11.375304 31.076174 19.923478 49.196522 19.923479 44.032 0 77.690435-36.997565 77.690435-85.348174 0-34.125913-18.120348-62.553043-44.009739-76.8z m-88.041739 14.246956l-121.722435-65.446956v-199.101218l121.722435-65.446956c10.351304 11.397565 20.702609 17.096348 33.658434 19.923478v290.148174c-12.955826 2.82713-23.30713 11.353043-33.658434 19.901217z m-23.307131-381.172869l-126.886956 68.274087-157.963131-99.57287V164.975304c18.120348-8.525913 33.658435-22.750609 41.427479-39.824695l243.422608 142.246956v28.427131z m-302.970435 409.6l-155.380869-96.723479v-193.402434l155.380869-96.723479 155.38087 96.723479v193.402434l-155.38087 96.723479zM484.730435 164.953043v105.249392l-152.776348 96.701217L199.902609 295.846957v-19.923479l245.982608-145.051826c7.791304 17.051826 23.30713 28.449391 38.845218 34.125913zM176.595478 347.046957l134.656 73.950608v184.898783l-134.678261 73.950609c-5.164522-5.698783-12.933565-11.375304-20.702608-17.074087V361.249391c7.769043-2.849391 12.955826-8.548174 20.702608-14.246956zM199.902609 728.153043l132.051478-73.950608 152.776348 96.701217v105.249391c-15.538087 5.698783-31.076174 17.074087-38.822957 34.125914L199.902609 748.098783v-19.901218z m336.628869 130.849392v-99.550609l160.545392-99.572869 126.886956 68.274086v11.375305c0 5.698783 0 11.375304 2.582261 17.074087l-243.400348 142.224695c-12.955826-19.923478-28.493913-34.148174-46.614261-39.846956z" fill="#1296db" p-id="8346"></path></svg>